# xmcd
#
# Track frame offsets: 
#        150
#        15670
#        30677
#        49927
#        68317
#        86467
#        105955
#        122072
#        139005
#        156172
#        171960
#
# Disc length: 2523 seconds
#
# Revision: 3
# Processed by: cddbd v1.5.2PL0 Copyright (c) Steve Scherf et al.
# Submitted via: ExactAudioCopy v1.0b3
#
DISCID=8109d90b
DTITLE=Deborah Coleman - Where Blue Begins
DYEAR=1998
DGENRE=Blues
TTITLE0=Love Moves Me
TTITLE1=Goodbye Misery
TTITLE2=Hain't It Funny
TTITLE3=Travellin' South
TTITLE4=The Dream
TTITLE5=Walk Your Walk
TTITLE6=They Raided The Joint
TTITLE7=Do You Want My Love
TTITLE8=On The Hunt
TTITLE9=Beside Myself
TTITLE10=Nobody To Blame
EXTD=
EXTT0=
EXTT1=
EXTT2=
EXTT3=
EXTT4=
EXTT5=
EXTT6=
EXTT7=
EXTT8=
EXTT9=
EXTT10=
PLAYORDER=
